# AST/ASF file generated using VICON BodyLanguage
# -----------------------------------------------
:version 1.10
:name VICON
:units
  mass 1.0
  length 0.45
  angle deg
:documentation
   .ast/.asf automatically generated from VICON data using
   VICON BodyBuilder and BodyLanguage model FoxedUp or BRILLIANT.MOD
:root
   order TX TY TZ RX RY RZ
   axis XYZ
   position 0 0 0  
   orientation 0 0 0 
:bonedata
  begin
     id 1 
     name lhipjoint
     direction 0.610259 -0.730986 0.305356 
     length 2.50941 
     axis 0 0 0  XYZ
  end
  begin
     id 2 
     name lfemur
     direction 0.34202 -0.939693 0  
     length 7.48822  
     axis 0 0 20  XYZ
    dof rx ry rz
    limits (-160.0 20.0)
           (-70.0 70.0)
           (-60.0 70.0)
  end
  begin
     id 3 
     name ltibia
     direction 0.34202 -0.939693 0   
     length 7.60141   
     axis 0 0 20   XYZ
    dof rx
    limits (-10.0 170.0)
  end
  begin
     id 4 
     name lfoot
     direction 0.0673488 -0.185039 0.980421   
     length 2.04049   
     axis -90 7.62852e-016 20   XYZ
    dof rx rz
    limits (-45.0 90.0)
           (-70.0 20.0)
  end
  begin
     id 5 
     name ltoes
     direction 1.5356e-011 -4.21729e-011 1   
     length 1.02897   
     axis -90 7.62852e-016 20   XYZ
    dof rx
    limits (-90.0 20.0)
  end
  begin
     id 6 
     name rhipjoint
     direction -0.57612 -0.754205 0.315056   
     length 2.43216  
     axis 0 0 0  XYZ 
  end
  begin
     id 7 
     name rfemur
     direction -0.34202 -0.939693 0   
     length 7.42799   
     axis 0 0 -20   XYZ
    dof rx ry rz
    limits (-160.0 20.0)
           (-70.0 70.0)
           (-70.0 60.0)
  end
  begin
     id 8 
     name rtibia
     direction -0.34202 -0.939693 0   
     length 7.69484   
     axis 0 0 -20   XYZ
    dof rx
    limits (-10.0 170.0)
 end
 begin
     id 9 
     name rfoot
     direction -0.111837 -0.30727 0.945028   
     length 2.15769  
     axis -90 -7.62852e-016 -20   XYZ
    dof rx rz
    limits (-45.0 90.0)
           (-20.0 70.0)
  end
  begin
     id 10 
     name rtoes
     direction -1.53539e-011 -4.21878e-011 1   
     length 1.07391   
     axis -90 -7.62852e-016 -20   XYZ
    dof rx
    limits (-90.0 20.0)
  end
  begin
     id 11 
     name lowerback
     direction 0.00552624 0.990109 -0.140195   
     length 2.12403   
     axis 0 0 0   XYZ
    dof rx ry rz
    limits (-20.0 45.0)
           (-30.0 30.0)
           (-30.0 30.0)
  end
  begin
     id 12 
     name upperback
     direction 0.00361898 0.999976 -0.00584723   
     length 2.13232   
     axis 0 0 0   XYZ
    dof rx ry rz
    limits (-20.0 45.0)
           (-30.0 30.0)
           (-30.0 30.0)
  end
  begin
     id 13 
     name thorax
     direction -0.000331275 0.998253 0.0590847   
     length 2.17688   
     axis 0 0 0   XYZ
    dof rx ry rz
    limits (-20.0 45.0)
           (-30.0 30.0)
           (-30.0 30.0)
  end
  begin
     id 14 
     name lowerneck
     direction -0.0561561 0.979832 0.19177   
     length 1.64159   
     axis 0 0 0   XYZ
    dof rx ry rz
    limits (-20.0 45.0)
           (-30.0 30.0)
           (-30.0 30.0)
  end
  begin
     id 15 
     name upperneck
     direction 0.0827153 0.979385 -0.184293   
     length 1.68939   
     axis 0 0 0   XYZ
    dof rx ry rz
    limits (-20.0 45.0)
           (-30.0 30.0)
           (-30.0 30.0)
  end
  begin
     id 16
     name head
     direction 0.0278583 0.995936 -0.0856488  
     length 1.70207  
     axis 0 0 0   XYZ
    dof rx ry rz
    limits (-20.0 45.0)
           (-30.0 30.0)
           (-30.0 30.0)
  end
  begin
     id 17 
     name lclavicle
     direction 0.950993 0.301131 -0.0702275  
     length 3.41652  
     axis 0 0 0   XYZ
    dof ry rz
    limits (-20.0 10.0)
           (0.0 20.0)
  end
  begin
     id 18 
     name lhumerus
     direction 1 -4.48981e-011 -3.9662e-029   
     length 5.32955   
     axis 180 -30 -90   XYZ
    dof rx ry rz
    limits (-60.0 90.0)
           (-90.0 90.0)
           (-90.0 90.0)
  end
  begin
     id 19
     name lradius
     direction 1 -4.48925e-011 -9.0549e-027   
     length 3.69232   
     axis 180 -30 -90   XYZ
    dof rx
    limits (-10.0 170.0)
  end
  begin
     id 20
     name lwrist
     direction 1 -4.49007e-011 -1.49005e-026   
     length 1.84616   
     axis 9.0955e-015 90 90   XYZ
    dof ry
    limits (-180.0 0.0)
 end
  begin
     id 21 
     name lhand
     direction 1 -4.49016e-011 -2.98023e-026   
     length 0.536598   
     axis 1.90115e-014 90 90   XYZ
    dof rx rz
    limits (-90.0 90.0)
           (-45.0 45.0)
  end
  begin
     id 22 
     name lfingers
     direction 1 -4.48924e-011 -5.9578e-026   
     length 0.432619   
     axis 3.80223e-014 90 90   XYZ
    dof rx
    limits (0.0 90.0)
  end
  begin
     id 23
     name lthumb
     direction 0.707107 -6.34947e-011 0.707107   
     length 0.621157   
     axis -90 45 -3.84942e-014   XYZ
    dof rx rz
    limits (-45.0 45.0)
           (-45.0 45.0)
  end
  begin
     id 24 
     name rclavicle
     direction -0.955495 0.276497 -0.102848   
     length 3.36357  
     axis 0 0 0   XYZ 
    dof ry rz
    limits (-10.0 20.0)
           (-20.0 0.0)
  end
  begin
     id 25 
     name rhumerus
     direction -1 -4.48961e-011 3.30983e-027  
     length 5.23431   
     axis 180 30 90   XYZ
    dof rx ry rz
    limits (-90.0 60.0)
           (-90.0 90.0)
           (-90.0 90.0)
  end
  begin
     id 26 
     name rradius
     direction -1 -4.48965e-011 -6.63263e-027   
     length 3.55301   
     axis 180 30 90   XYZ
    dof rx
    limits (-10.0 170.0)
  end
  begin
     id 27 
     name rwrist
     direction -1 -4.48942e-011 -1.48958e-026   
     length 1.77651   
     axis 9.0955e-015 -90 -90   XYZ
    dof ry
    limits (-180.0 0.0)
  end
  begin
     id 28
     name rhand
     direction -1 -4.48977e-011 -2.97966e-026   
     length 0.772522   
     axis 1.90115e-014 -90 -90   XYZ
    dof rx rz
    limits (-90.0 90.0)
           (-45.0 45.0)
  end
  begin
     id 29
     name rfingers
     direction -1 -4.49135e-011 -5.96389e-026   
     length 0.622827   
     axis 3.80223e-014 -90 -90   XYZ
    dof rx
    limits (0.0 90.0)
  end
  begin
     id 30
     name rthumb
     direction -0.707107 -6.34969e-011 0.707107   
     length 0.894259   
     axis -90 -45 3.84942e-014   XYZ
    dof rx rz
    limits (-45.0 45.0)
           (-45.0 45.0)
  end
:hierarchy
  begin
    root lhipjoint rhipjoint lowerback
    lhipjoint lfemur
    lfemur ltibia
    ltibia lfoot
    lfoot ltoes
    rhipjoint rfemur
    rfemur rtibia
    rtibia rfoot
    rfoot rtoes
    lowerback upperback
    upperback thorax
    thorax lowerneck lclavicle rclavicle
    lowerneck upperneck
    upperneck head
    lclavicle lhumerus
    lhumerus lradius
    lradius lwrist
    lwrist lhand lthumb
    lhand lfingers
    rclavicle rhumerus
    rhumerus rradius
    rradius rwrist
    rwrist rhand rthumb
    rhand rfingers
  end

#!OML:ASF F:\VICON\USERDATA\INSTALL\rory3\rory3.ASF
:FULLY-SPECIFIED
:DEGREES
441
root 9.9403 18.2986 -5.34218 0.11866 8.19409 5.44688
lowerback 7.97047 -0.723237 -2.02623
upperback 1.11269 -1.10477 0.813444
thorax -3.26182 -0.519765 2.0978
lowerneck -15.6859 -0.219389 -10.7603
upperneck 41.9799 2.83909 2.28443
head 18.2649 -0.220883 3.58324
rclavicle -4.87022e-015 7.95139e-015
rhumerus -41.8296 -20.705 -72.8939
rradius 23.2917
rwrist 15.2806
rhand -14.0094 5.71371
rfingers 7.12502
rthumb 12.12 -23.9152
lclavicle -4.87022e-015 7.95139e-015
lhumerus -28.5935 4.75171 87.3711
lradius 39.1405
lwrist -4.33455
lhand -18.2418 29.0865
lfingers 7.12502
lthumb 8.03701 58.9137
rfemur -14.5263 -9.32462 22.7446
rtibia 27.8663
rfoot -6.38635 -12.7675
rtoes 6.98836
lfemur 3.49521 5.67524 -19.165
ltibia 36.618
lfoot 8.94898 -2.31759
ltoes -2.09584
442
root 9.97071 18.2726 -5.46325 0.317129 8.48074 5.64612
lowerback 7.97035 -0.771194 -2.23413
upperback 1.00799 -1.18726 0.814517
thorax -3.3618 -0.555788 2.22596
lowerneck -15.7037 -0.134086 -10.538
upperneck 42.1052 2.97744 2.11815
head 18.3396 -0.158705 3.49688
rclavicle -2.23633e-014 -4.77083e-015
rhumerus -42.1538 -21.055 -72.3778
rradius 23.1066
rwrist 15.6081
rhand -13.9503 5.66417
rfingers 7.12502
rthumb 12.177 -23.9614
lclavicle -2.23633e-014 -4.77083e-015
lhumerus -28.7172 4.15173 87.6808
lradius 40.0603
lwrist -4.04168
lhand -17.8947 27.9032
lfingers 7.12502
lthumb 8.37195 57.7173
rfemur -15.2866 -9.35011 22.4561
rtibia 28.1772
rfoot -6.55773 -13.0566
rtoes 7.70398
lfemur 4.02292 5.6789 -19.6817
ltibia 35.1717
lfoot 9.29664 -1.75271
ltoes -2.91055
443
root 10.0023 18.2408 -5.58672 0.534543 8.66411 5.84511
lowerback 7.92718 -0.80548 -2.43603
upperback 0.991283 -1.24948 0.816029
thorax -3.34727 -0.584172 2.34703
lowerneck -15.7095 -0.0924152 -10.4972
upperneck 41.9831 3.05325 2.04754
head 18.2627 -0.123902 3.46521
rclavicle 9.93923e-015 1.35174e-014
rhumerus -42.2664 -21.3604 -71.9992
rradius 23.0487
rwrist 15.781
rhand -13.7272 5.45738
rfingers 7.12502
rthumb 12.3922 -24.1553
lclavicle 9.93923e-015 1.35174e-014
lhumerus -28.6833 3.79417 87.9065
lradius 40.9839
lwrist -3.97886
lhand -17.124 27.2915
lfingers 7.12502
lthumb 9.11564 57.0745
rfemur -16.1134 -9.28307 22.1785
rtibia 28.5468
rfoot -6.77349 -13.3195
rtoes 8.19298
lfemur 4.59128 5.69204 -20.2378
ltibia 33.5698
lfoot 8.79685 -1.03093
ltoes -6.9294
444
root 10.0338 18.2031 -5.71271 0.770715 8.86707 5.99728
lowerback 7.86661 -0.855091 -2.64363
upperback 1.00749 -1.32959 0.872937
thorax -3.28591 -0.622268 2.52965
lowerneck -15.8321 -0.0622261 -10.5291
upperneck 41.9252 3.17871 1.93313
head 18.2551 -0.0923737 3.44036
rclavicle 9.64106e-015 -2.46493e-014
rhumerus -42.2421 -21.4823 -71.7438
rradius 23.0912
rwrist 15.6951
rhand -13.6556 5.27033
rfingers 7.12502
rthumb 12.4612 -24.3382
lclavicle 9.64106e-015 -2.46493e-014
lhumerus -28.5766 3.38862 88.1925
lradius 41.9078
lwrist -3.71815
lhand -16.7434 27.0218
lfingers 7.12502
lthumb 9.48296 56.7884
rfemur -17.0342 -9.28463 21.9615
rtibia 29.0047
rfoot -7.03999 -13.494
rtoes 9.20249
lfemur 5.14747 5.74219 -20.7409
ltibia 31.863
lfoot 7.83748 -0.302317
ltoes -12.4661
445
root 10.0672 18.1585 -5.84121 0.925658 9.1802 6.07422
lowerback 7.90962 -0.950615 -2.73456
upperback 0.994699 -1.46336 0.934013
thorax -3.3109 -0.686658 2.65922
lowerneck -15.8192 -0.0186835 -10.5571
upperneck 41.8481 3.28702 1.85167
head 18.1989 -0.0594312 3.42334
rclavicle 1.39149e-014 -2.38542e-015
rhumerus -42.3159 -21.3586 -71.6086
rradius 23.2209
rwrist 15.5855
rhand -13.6663 5.48814
rfingers 7.12502
rthumb 12.4509 -24.121
lclavicle 1.39149e-014 -2.38542e-015
lhumerus -28.6124 2.84364 88.4909
lradius 42.9073
lwrist -3.31011
lhand -17.0226 27.1043
lfingers 7.12502
lthumb 9.2135 56.883
rfemur -17.8918 -9.29493 21.8158
rtibia 29.4964
rfoot -7.2152 -13.8795
rtoes 10.3774
lfemur 5.83015 5.75588 -21.146
ltibia 30.1842
lfoot 5.9166 0.560228
ltoes -16.8343
